<?xml version="1.0" standalone="no"?>
<!DOCTYPE svg PUBLIC "-//W3C//DTD SVG 20010904//EN"
 "http://www.w3.org/TR/2001/REC-SVG-20010904/DTD/svg10.dtd">
<svg version="1.0" xmlns="http://www.w3.org/2000/svg"
 width="1024.000000pt" height="1024.000000pt" viewBox="0 0 1024.000000 1024.000000"
 preserveAspectRatio="xMidYMid meet">
<metadata>
Created by potrace 1.14, written by Peter Selinger 2001-2017
</metadata>
<g transform="translate(0.000000,1024.000000) scale(0.100000,-0.100000)"
fill="#000000" stroke="none">
<path d="M5009 10156 c-2 -2 -78 -6 -169 -10 -91 -3 -185 -8 -210 -11 -317
-37 -485 -66 -726 -125 -431 -106 -927 -305 -1309 -525 -582 -336 -1109 -805
-1506 -1340 -438 -591 -730 -1231 -893 -1960 -27 -118 -71 -375 -81 -465 -3
-30 -8 -71 -10 -90 -13 -117 -17 -250 -17 -525 0 -170 3 -323 6 -340 2 -16 7
-70 11 -120 56 -796 414 -1769 903 -2450 65 -91 200 -265 247 -320 15 -16 49
-57 78 -90 90 -105 398 -407 527 -516 493 -416 1038 -724 1635 -925 400 -134
781 -213 1200 -248 153 -13 774 -15 835 -3 14 3 61 8 105 12 44 3 87 8 95 10
8 2 42 6 75 10 466 49 1084 239 1568 481 370 186 772 454 1033 689 6 6 44 39
85 75 158 141 358 348 510 530 254 304 428 569 609 925 269 527 429 1050 512
1668 18 140 22 219 24 577 1 228 -1 451 -6 495 -5 44 -11 105 -15 135 -69 646
-268 1269 -589 1843 -267 476 -492 775 -865 1147 -419 417 -829 710 -1346 961
-659 319 -1383 493 -2079 498 -120 1 -222 4 -226 6 -4 2 -9 3 -11 1z"/>
</g>
</svg>
